<svg width="100" height="100" viewBox="0 0 100 100" fill="none" xmlns="http://www.w3.org/2000/svg">
<rect width="100" height="100" rx="50" fill="white"/>
<path d="M27.236 64C27.1774 64 27.148 63.912 27.148 63.736C27.148 63.56 27.1774 63.472 27.236 63.472C28.3507 63.472 29.172 63.3987 29.7 63.252C30.228 63.1053 30.58 62.8267 30.756 62.416C30.9614 61.976 31.064 61.316 31.064 60.436V40.064C31.064 39.184 30.9614 38.5387 30.756 38.128C30.58 37.7173 30.228 37.4387 29.7 37.292C29.2014 37.116 28.3947 37.028 27.28 37.028C27.2214 37.028 27.192 36.94 27.192 36.764C27.192 36.588 27.2214 36.5 27.28 36.5H44.968C45.232 36.5 45.364 36.632 45.364 36.896L45.452 42.308C45.452 42.396 45.364 42.4547 45.188 42.484C45.0414 42.484 44.968 42.44 44.968 42.352C44.88 40.7973 44.4107 39.5947 43.56 38.744C42.7094 37.864 41.58 37.424 40.172 37.424H37.488C36.4907 37.424 35.7427 37.4973 35.244 37.644C34.7454 37.7907 34.3934 38.0547 34.188 38.436C33.9827 38.8173 33.88 39.3747 33.88 40.108V60.26C33.88 61.1987 33.9974 61.888 34.232 62.328C34.496 62.7387 34.9947 63.032 35.728 63.208C36.4907 63.384 37.664 63.472 39.248 63.472C39.336 63.472 39.38 63.56 39.38 63.736C39.38 63.912 39.336 64 39.248 64C38.0454 64 37.1067 63.9853 36.432 63.956L32.472 63.912L29.48 63.956C28.952 63.9853 28.204 64 27.236 64ZM42.724 54.276C42.724 52.9853 42.372 52.0613 41.668 51.504C40.9934 50.9467 39.8494 50.668 38.236 50.668H32.56V49.744H38.368C39.9227 49.744 41.0227 49.5093 41.668 49.04C42.3427 48.5413 42.68 47.7493 42.68 46.664C42.68 46.6053 42.768 46.576 42.944 46.576C43.12 46.576 43.208 46.6053 43.208 46.664L43.164 50.228C43.164 51.0787 43.1787 51.724 43.208 52.164L43.252 54.276C43.252 54.3347 43.164 54.364 42.988 54.364C42.812 54.364 42.724 54.3347 42.724 54.276ZM53.3188 40.064C53.3188 39.184 53.2308 38.5387 53.0548 38.128C52.8788 37.7173 52.5268 37.4387 51.9988 37.292C51.5001 37.116 50.6934 37.028 49.5788 37.028C49.5201 37.028 49.4908 36.94 49.4908 36.764C49.4908 36.588 49.5201 36.5 49.5788 36.5L51.7788 36.544C53.0108 36.6027 53.9934 36.632 54.7268 36.632C55.5774 36.632 56.6188 36.6027 57.8508 36.544L59.9188 36.5C60.0068 36.5 60.0508 36.588 60.0508 36.764C60.0508 36.94 60.0068 37.028 59.9188 37.028C58.8334 37.028 58.0268 37.116 57.4988 37.292C57.0001 37.468 56.6481 37.776 56.4428 38.216C56.2668 38.6267 56.1788 39.272 56.1788 40.152V60.436C56.1788 61.3453 56.2668 62.0053 56.4428 62.416C56.6188 62.8267 56.9561 63.1053 57.4548 63.252C57.9828 63.3987 58.8041 63.472 59.9188 63.472C60.0068 63.472 60.0508 63.56 60.0508 63.736C60.0508 63.912 60.0068 64 59.9188 64C59.0388 64 58.3348 63.9853 57.8068 63.956L54.7268 63.912L51.7348 63.956C51.2068 63.9853 50.4734 64 49.5348 64C49.4761 64 49.4468 63.912 49.4468 63.736C49.4468 63.56 49.4761 63.472 49.5348 63.472C50.6494 63.472 51.4561 63.3987 51.9548 63.252C52.4828 63.1053 52.8348 62.8267 53.0108 62.416C53.2161 61.976 53.3188 61.316 53.3188 60.436V40.064ZM57.3668 48.82L59.5668 47.06L65.9908 55.244C68.1321 58.0307 69.7601 59.996 70.8748 61.14C72.0188 62.284 72.8988 62.9587 73.5148 63.164C74.1308 63.3693 75.0254 63.472 76.1988 63.472C76.2868 63.472 76.3308 63.56 76.3308 63.736C76.3308 63.912 76.2868 64 76.1988 64H71.2708C71.0361 64 70.6108 64 69.9948 64C69.4081 64.0293 68.5721 63.296 67.4868 61.8C66.4014 60.2747 65.3601 58.8813 64.3628 57.62L57.3668 48.82ZM65.5948 40.064C66.5628 39.096 67.0468 38.3773 67.0468 37.908C67.0468 37.3213 66.1814 37.028 64.4508 37.028C64.3921 37.028 64.3628 36.94 64.3628 36.764C64.3628 36.588 64.3921 36.5 64.4508 36.5L66.3428 36.544C67.5161 36.6027 68.5868 36.632 69.5548 36.632C70.5228 36.632 71.5348 36.6027 72.5908 36.544L74.2188 36.5C74.3068 36.5 74.3508 36.588 74.3508 36.764C74.3508 36.94 74.3068 37.028 74.2188 37.028C73.0161 37.028 71.7401 37.292 70.3908 37.82C69.0414 38.348 67.7801 39.184 66.6068 40.328L55.3428 51.372H54.2428L65.5948 40.064Z" fill="black"/>
</svg>
